<?xml version="1.0" encoding="UTF-8"?>
<svg width="603px" height="243px" viewBox="0 0 603 243" version="1.1" xmlns="http://www.w3.org/2000/svg" xmlns:xlink="http://www.w3.org/1999/xlink">
    <!-- Generator: Sketch 61.2 (89653) - https://sketch.com -->
    <title>AA RGB Colour DB</title>
    <desc>Created with Sketch.</desc>
    <g id="Page-1" stroke="none" stroke-width="1" fill="none" fill-rule="evenodd">
        <g id="AA-RGB-Colour-DB" transform="translate(0.000000, -1.000000)" fill="#2D2252" fill-rule="nonzero">
            <path d="M282,117.02 L269.1,117.02 L262.1,100.26 L229.17,100.26 L222,117.02 L209.5,117.02 L240.05,47.08 L251.36,47.08 L282,117.02 Z M245.54,61.72 L233.64,89.49 L257.54,89.49 L245.54,61.72 L245.54,61.72 Z" id="Shape"></path>
            <path d="M324.28,64.64 L336.28,64.64 L336.28,117.02 L324.28,117.02 L324.28,108.89 C320.91,113.89 316.05,118.11 307.91,118.11 C296.11,118.11 289.26,110.18 289.26,97.97 L289.26,64.64 L301.26,64.64 L301.26,94.4 C301.26,102.54 305.33,107.2 312.47,107.2 C319.41,107.2 324.27,102.34 324.27,94.2 L324.27,64.64 L324.28,64.64 Z" id="Path"></path>
            <path d="M387.65,117.02 L387.65,108.29 C383.78,113.75 378.32,118.11 369.79,118.11 C357.49,118.11 345.49,108.29 345.49,90.83 C345.49,73.37 357.29,63.55 369.79,63.55 C378.42,63.55 383.88,67.92 387.65,72.78 L387.65,46.94 L399.65,46.94 L399.65,117.02 L387.65,117.02 Z M372.65,73.97 C364.41,73.97 357.57,80.32 357.57,90.83 C357.57,101.15 364.51,107.7 372.65,107.7 C380.79,107.7 387.83,101.05 387.83,90.83 C387.83,80.61 380.68,73.97 372.65,73.97 Z" id="Shape"></path>
            <path d="M387.85,198.05 L387.85,189.32 C383.99,194.78 378.53,199.14 370,199.14 C357.7,199.14 345.69,189.32 345.69,171.86 C345.69,154.4 357.5,144.58 370,144.58 C378.63,144.58 384.08,148.94 387.85,153.81 L387.85,145.58 L399.85,145.58 L399.85,198.05 L387.85,198.05 Z M372.85,155 C364.62,155 357.78,161.34 357.78,171.86 C357.78,182.18 364.72,188.72 372.85,188.72 C380.98,188.72 388.03,182.08 388.03,171.86 C388.03,161.64 380.89,155 372.85,155 Z" id="Shape"></path>
            <path d="M461.37,118.21 C445.37,118.21 433.59,106.01 433.59,91.03 C433.59,76.05 445.5,63.55 461.59,63.55 C477.68,63.55 489.47,75.75 489.47,90.83 C489.47,105.91 477.56,118.21 461.39,118.21 L461.37,118.21 Z M461.37,74.07 C451.75,74.07 445.6,81.61 445.6,90.83 C445.6,100.05 452.24,107.83 461.6,107.83 C471.32,107.83 477.47,100.29 477.47,91.06 C477.47,81.83 470.83,74.06 461.4,74.06 L461.37,74.07 Z" id="Shape"></path>
            <path d="M281.88,197.96 L269,197.96 L262,181.19 L229.1,181.19 L222,197.96 L209.5,197.96 L240,128.02 L251.31,128.02 L281.86,197.96 L281.88,197.96 Z M245.47,142.6 L233.57,170.38 L257.48,170.38 L245.48,142.6 L245.47,142.6 Z" id="Shape"></path>
            <path d="M301.68,197.96 L289.68,197.96 L289.68,145.58 L301.68,145.58 L301.68,153.72 C305.05,148.72 309.91,144.49 318.05,144.49 C329.85,144.49 336.7,152.43 336.7,164.63 L336.7,197.97 L324.7,197.97 L324.7,168.19 C324.7,160.06 320.63,155.4 313.49,155.4 C306.54,155.4 301.68,160.26 301.68,168.4 L301.68,197.97 L301.68,197.96 Z" id="Path"></path>
            <polygon id="Path" points="412.41 197.96 412.41 127.88 424.41 127.88 424.41 197.96 412.41 197.96"></polygon>
            <path d="M467.57,199.44 C463.4,210.16 458.74,214.13 450.31,214.13 C445.967314,214.192475 441.686654,213.094693 437.91,210.95 L442,202.02 C444.129912,203.26028 446.536342,203.947831 449,204.02 C452.37,204.02 454.46,202.53 456.44,197.97 L434.62,145.59 L447.41,145.59 L462.29,184.47 L475.88,145.59 L488.38,145.59 L467.55,199.45 L467.57,199.44 Z" id="Path"></path>
            <path d="M508.16,181.59 C508.16,186.25 510.54,188.13 514.6,188.13 C517.186855,188.141854 519.738616,187.531352 522.04,186.35 L522.04,196.17 C518.744653,198.022767 515.009191,198.948858 511.23,198.85 C502.4,198.85 496.43,194.98 496.43,183.47 L496.43,128.03 L508.16,128.03 L508.16,147.91 L522.24,147.91 L522.24,158.23 L508.16,158.23 L508.16,181.59 Z" id="Path"></path>
            <polygon id="Path" points="533.8 197.96 533.8 152.32 545.8 152.32 545.8 197.96 533.8 197.96"></polygon>
            <path d="M581.63,199.15 C574.403184,199.234591 567.449211,196.393504 562.349099,191.272676 C557.248987,186.151847 554.436114,179.186414 554.55,171.96 C554.55,156.96 566.05,144.48 581.73,144.48 C591.65,144.48 597.8,148.15 602.66,153.48 L595.22,161.48 C591.55,157.61 587.68,154.93 581.63,154.93 C572.9,154.93 566.55,162.47 566.55,171.7 C566.55,181.12 573,188.7 582.22,188.7 C587.88,188.7 592.04,186.02 595.81,182.15 L603.06,189.29 C597.9,195.05 591.85,199.12 581.63,199.12 L581.63,199.15 Z" id="Path"></path>
            <path d="M548.58,133.53 C548.58,138.406674 544.626674,142.36 539.75,142.36 C534.873326,142.36 530.92,138.406674 530.92,133.53 C530.92,128.653326 534.873326,124.7 539.75,124.7 C544.626674,124.7 548.58,128.653326 548.58,133.53 Z" id="Path"></path>
            <polygon id="Path" points="412.45 117.02 412.45 71.38 424.46 71.38 424.46 117.02 412.45 117.02"></polygon>
            <path d="M427.24,52.72 C427.24,57.5966743 423.286674,61.55 418.41,61.55 C413.533326,61.55 409.58,57.5966743 409.58,52.72 C409.58,47.8433257 413.533326,43.89 418.41,43.89 C423.286674,43.89 427.24,47.8433257 427.24,52.72 L427.24,52.72 Z" id="Path"></path>
            <path d="M131.09,26.96 L86.42,0.96 L63,14.55 L0,217.97 L44.67,243.97 L70.67,228.97 L85.38,180.43 L133.7,152.53 L168.27,172.63 L195,157.15 L131.1,26.96 L131.09,26.96 Z M49.85,123.31 L74.37,42.79 L99.47,94.66 L49.85,123.31 Z M94.52,149.31 L119.05,68.72 L144.15,120.58 L94.52,149.23 L94.52,149.31 Z" id="Shape"></path>
        </g>
    </g>
</svg>